<svg xmlns="http://www.w3.org/2000/svg" width="900" height="560" viewBox="0 0 900 560">
<rect width="100%" height="100%" fill="#f3f4f6"/>
<text x="450" y="48" text-anchor="middle" font-size="30" font-family="Arial" font-weight="700" fill="#111827">Sump & Oil Pickup</text>
<text x="450" y="82" text-anchor="middle" font-size="16" font-family="Arial" fill="#6b7280">Original Project Piston schematic placeholder — verify against vehicle before use</text>
<rect x="90" y="120" width="220" height="50" rx="10" fill="#fff" stroke="#111827" stroke-width="3"/><text x="200" y="151" text-anchor="middle" font-family="Arial" font-size="17">Drain oil</text><rect x="90" y="205" width="220" height="50" rx="10" fill="#fff" stroke="#111827" stroke-width="3"/><text x="200" y="236" text-anchor="middle" font-family="Arial" font-size="17">Remove sump</text><line x1="310" y1="145" x2="90" y2="230" stroke="#6b7280" stroke-width="2" stroke-dasharray="5 5"/><rect x="90" y="290" width="220" height="50" rx="10" fill="#fff" stroke="#111827" stroke-width="3"/><text x="200" y="321" text-anchor="middle" font-family="Arial" font-size="17">Inspect debris</text><line x1="310" y1="230" x2="90" y2="315" stroke="#6b7280" stroke-width="2" stroke-dasharray="5 5"/><rect x="90" y="375" width="220" height="50" rx="10" fill="#fff" stroke="#111827" stroke-width="3"/><text x="200" y="406" text-anchor="middle" font-family="Arial" font-size="17">Clean pickup</text><line x1="310" y1="315" x2="90" y2="400" stroke="#6b7280" stroke-width="2" stroke-dasharray="5 5"/><rect x="390" y="120" width="220" height="50" rx="10" fill="#fff" stroke="#111827" stroke-width="3"/><text x="500" y="151" text-anchor="middle" font-family="Arial" font-size="17">Inspect seal</text><line x1="310" y1="400" x2="390" y2="145" stroke="#6b7280" stroke-width="2" stroke-dasharray="5 5"/><rect x="390" y="205" width="220" height="50" rx="10" fill="#fff" stroke="#111827" stroke-width="3"/><text x="500" y="236" text-anchor="middle" font-family="Arial" font-size="17">Refit sump</text><line x1="610" y1="145" x2="390" y2="230" stroke="#6b7280" stroke-width="2" stroke-dasharray="5 5"/><rect x="390" y="290" width="220" height="50" rx="10" fill="#fff" stroke="#111827" stroke-width="3"/><text x="500" y="321" text-anchor="middle" font-family="Arial" font-size="17">Fresh oil</text><line x1="610" y1="230" x2="390" y2="315" stroke="#6b7280" stroke-width="2" stroke-dasharray="5 5"/><rect x="390" y="375" width="220" height="50" rx="10" fill="#fff" stroke="#111827" stroke-width="3"/><text x="500" y="406" text-anchor="middle" font-family="Arial" font-size="17">Follow-up oil</text><line x1="610" y1="315" x2="390" y2="400" stroke="#6b7280" stroke-width="2" stroke-dasharray="5 5"/>
</svg>